<svg width="16" height="16" viewBox="0 0 16 16" fill="none" xmlns="http://www.w3.org/2000/svg">
<path d="M9.09241 2.35544C9.09241 1.70035 8.31255 1.35967 7.83264 1.8054L4.92915 4.50156C4.85989 4.56607 4.76882 4.60199 4.6742 4.60211H2.71855C2.42023 4.60211 2.13414 4.7207 1.9232 4.93179C1.71226 5.14288 1.59375 5.42918 1.59375 5.7277V9.47966C1.59375 9.77819 1.71226 10.0645 1.9232 10.2756C2.13414 10.4867 2.42023 10.6053 2.71855 10.6053H4.6742C4.76872 10.6052 4.85978 10.6408 4.92915 10.7051L7.83264 13.402C8.31255 13.8469 9.09241 13.507 9.09241 12.8519V2.35544ZM5.43906 5.0516L8.34255 2.35544V12.8519L5.43906 10.155C5.23105 9.96203 4.95785 9.85482 4.6742 9.85486H2.71855C2.61911 9.85486 2.52375 9.81533 2.45343 9.74497C2.38312 9.6746 2.34362 9.57917 2.34362 9.47966V5.7277C2.34362 5.62819 2.38312 5.53276 2.45343 5.4624C2.52375 5.39203 2.61911 5.35251 2.71855 5.35251H4.6742C4.95785 5.35254 5.23105 5.24458 5.43906 5.0516ZM11.537 3.57257C11.5737 3.53976 11.6165 3.5145 11.663 3.49825C11.7095 3.482 11.7587 3.47507 11.8079 3.47786C11.8571 3.48064 11.9052 3.49309 11.9495 3.5145C11.9939 3.5359 12.0336 3.56583 12.0664 3.60259C13.05 4.70318 13.5938 6.12791 13.5938 7.60443C13.5938 9.08095 13.05 10.5057 12.0664 11.6063C11.9998 11.6793 11.907 11.7231 11.8083 11.7281C11.7096 11.7331 11.6129 11.6989 11.5393 11.633C11.4656 11.567 11.421 11.4746 11.4151 11.3759C11.4092 11.2771 11.4425 11.1801 11.5077 11.1058C12.3684 10.1427 12.8443 8.89606 12.8443 7.60406C12.8443 6.31206 12.3684 5.06538 11.5077 4.10235C11.4414 4.02822 11.4072 3.93075 11.4127 3.8314C11.4182 3.73205 11.4629 3.63895 11.537 3.57257ZM10.6551 9.80533C10.569 9.75558 10.5062 9.67363 10.4805 9.57751C10.4547 9.4814 10.4682 9.37899 10.5179 9.29282C10.8141 8.77948 10.97 8.19718 10.97 7.60443C10.97 7.01169 10.8141 6.42938 10.5179 5.91605C10.4908 5.87335 10.4726 5.82559 10.4644 5.77566C10.4562 5.72573 10.4581 5.67465 10.4702 5.6255C10.4822 5.57635 10.504 5.53015 10.5344 5.48966C10.5647 5.44918 10.6029 5.41526 10.6467 5.38993C10.6905 5.36461 10.7389 5.34841 10.7891 5.34231C10.8393 5.33621 10.8902 5.34033 10.9388 5.35443C10.9873 5.36853 11.0326 5.39231 11.0717 5.42435C11.1108 5.45639 11.1431 5.49602 11.1665 5.54085C11.5286 6.16819 11.7193 6.87986 11.7195 7.60433C11.7196 8.3288 11.5292 9.04054 11.1673 9.66801C11.1176 9.75418 11.0357 9.81706 10.9396 9.84281C10.8436 9.86857 10.7412 9.85508 10.6551 9.80533Z" fill="#5F5F5F"/>
</svg>
