<svg width="16" height="16" viewBox="0 0 16 16" fill="none" xmlns="http://www.w3.org/2000/svg">
<g clip-path="url(#clip0_6794_7248)">
<path fill-rule="evenodd" clip-rule="evenodd" d="M4.00261 4.00065C4.37081 4.00065 4.66927 4.29912 4.66927 4.66732C4.66927 5.03552 4.37081 5.33398 4.00261 5.33398C3.63441 5.33398 3.33594 5.03552 3.33594 4.66732C3.33594 4.29912 3.63441 4.00065 4.00261 4.00065ZM5.33594 4.66732C5.33594 3.93095 4.73897 3.33398 4.00261 3.33398C3.26624 3.33398 2.66927 3.93095 2.66927 4.66732C2.66927 5.40368 3.26624 6.00065 4.00261 6.00065C4.73897 6.00065 5.33594 5.40368 5.33594 4.66732Z" fill="#5F5F5F"/>
<path fill-rule="evenodd" clip-rule="evenodd" d="M6.1116 6.3753C5.92183 6.1381 5.63453 6 5.33073 6H3.33073C3.3049 6 3.27927 6.001 3.25383 6.00293H2.3672C2.21323 6.00293 2.04243 6.06517 1.89453 6.14277C1.73623 6.2258 1.56517 6.3469 1.40674 6.5052C1.08814 6.8235 0.808868 7.30543 0.808868 7.93977C0.808868 8.72013 1.06763 9.29023 1.3877 9.66907C1.54603 9.8565 1.71884 9.99643 1.88104 10.0913C1.93007 10.12 1.98143 10.1465 2.03387 10.1692V13.9643C2.03387 14.448 2.4283 14.8425 2.91207 14.8425C3.39583 14.8425 3.79027 14.448 3.79027 13.9643V11.5733H4.2133V13.9643C4.2133 14.448 4.60773 14.8425 5.0915 14.8425C5.57526 14.8425 5.9697 14.448 5.9697 13.9643V9.3863C6.1549 9.565 6.4034 9.66667 6.66406 9.66667H8.66406C9.21636 9.66667 9.66406 9.21897 9.66406 8.66667C9.66406 8.11437 9.21636 7.66667 8.66406 7.66667H7.1447L6.1116 6.3753ZM5.33073 6.66667C5.432 6.66667 5.52776 6.7127 5.59103 6.79177L6.82426 8.33333H8.66406C8.84816 8.33333 8.9974 8.48257 8.9974 8.66667C8.9974 8.85077 8.84816 9 8.66406 9H6.66406C6.5628 9 6.46703 8.95397 6.40376 8.8749L5.30303 7.49897V13.9643C5.30303 14.0799 5.20707 14.1758 5.0915 14.1758C4.97593 14.1758 4.87997 14.0799 4.87997 13.9643V10.9067H3.1236V13.9643C3.1236 14.0799 3.02763 14.1758 2.91207 14.1758C2.7965 14.1758 2.70053 14.0799 2.70053 13.9643V9.5814H2.3672C2.3692 9.5814 2.36857 9.58123 2.36547 9.5805C2.35313 9.57753 2.30197 9.56523 2.21773 9.51593C2.12213 9.46 2.0074 9.36957 1.89697 9.23883C1.6794 8.98133 1.47553 8.56393 1.47553 7.93977C1.47553 7.51543 1.65893 7.1956 1.8779 6.97683C1.98827 6.8666 2.10473 6.78533 2.20423 6.7331C2.29973 6.68303 2.35547 6.67203 2.3657 6.67C2.36723 6.6697 2.3672 6.6696 2.3672 6.6696H3.2834L3.2989 6.66813C3.3093 6.66717 3.3199 6.66667 3.33073 6.66667H5.33073Z" fill="#5F5F5F"/>
<path fill-rule="evenodd" clip-rule="evenodd" d="M14.6641 1.33398H3.66406V3.05398H4.33073V2.00065H13.9974V10.0007H6.33073V10.6673H14.6641V1.33398Z" fill="#5F5F5F"/>
<path fill-rule="evenodd" clip-rule="evenodd" d="M2.70312 9.87564V7.33984H2.03646V9.87564H2.70312Z" fill="#5F5F5F"/>
</g>
<defs>
<clipPath id="clip0_6794_7248">
<rect width="16" height="16" fill="white" transform="matrix(-1 0 0 1 16 0)"/>
</clipPath>
</defs>
</svg>
