<svg width="12" height="12" viewBox="0 0 12 12" fill="none" xmlns="http://www.w3.org/2000/svg">
<path d="M6.7141 1.18713C6.22122 1.18713 5.8212 1.57216 5.8212 2.04657V2.56224H3.49967C3.40495 2.56224 3.31411 2.59846 3.24713 2.66293C3.18015 2.7274 3.14252 2.81484 3.14252 2.90601V5.14056H2.60678C2.36997 5.14056 2.14286 5.23111 1.97541 5.39228C1.80796 5.55346 1.71388 5.77206 1.71388 6C1.71388 6.22794 1.80796 6.44654 1.97541 6.60772C2.14286 6.76889 2.36997 6.85944 2.60678 6.85944H3.14252V9.09398C3.14252 9.18516 3.18015 9.2726 3.24713 9.33707C3.31411 9.40154 3.40495 9.43776 3.49967 9.43776H5.8212V9.95342C5.8212 10.1814 5.91528 10.4 6.08273 10.5611C6.25018 10.7223 6.47729 10.8129 6.7141 10.8129C6.95091 10.8129 7.17802 10.7223 7.34547 10.5611C7.51292 10.4 7.607 10.1814 7.607 9.95342V9.43776H9.92852C10.0232 9.43776 10.1141 9.40154 10.1811 9.33707C10.2481 9.2726 10.2857 9.18516 10.2857 9.09398V7.54699H9.74995C9.32369 7.54699 8.91489 7.38401 8.61348 7.09389C8.31206 6.80377 8.14273 6.41029 8.14273 6C8.14273 5.58971 8.31206 5.19623 8.61348 4.90611C8.91489 4.61599 9.32369 4.45301 9.74995 4.45301H10.2857V2.90601C10.2857 2.81484 10.2481 2.7274 10.1811 2.66293C10.1141 2.59846 10.0232 2.56224 9.92852 2.56224H7.607V2.04657C7.607 1.57216 7.20698 1.18713 6.7141 1.18713ZM5.11689 1.87469C5.16091 1.4966 5.34814 1.14739 5.64279 0.893792C5.93743 0.640196 6.31884 0.5 6.7141 0.5C7.10936 0.5 7.49076 0.640196 7.78541 0.893792C8.08006 1.14739 8.26729 1.4966 8.31131 1.87469H9.92852C10.2127 1.87469 10.4852 1.98334 10.6862 2.17676C10.8871 2.37017 11 2.63249 11 2.90601V5.14056H9.74995C9.51313 5.14056 9.28602 5.23111 9.11857 5.39228C8.95112 5.55346 8.85705 5.77206 8.85705 6C8.85705 6.22794 8.95112 6.44654 9.11857 6.60772C9.28602 6.76889 9.51313 6.85944 9.74995 6.85944H11V9.09398C11 9.36751 10.8871 9.62983 10.6862 9.82324C10.4852 10.0167 10.2127 10.1253 9.92852 10.1253H8.31131C8.26729 10.5034 8.08006 10.8526 7.78541 11.1062C7.49076 11.3598 7.10936 11.5 6.7141 11.5C6.31884 11.5 5.93743 11.3598 5.64279 11.1062C5.34814 10.8526 5.16091 10.5034 5.11689 10.1253H3.49967C3.2155 10.1253 2.94297 10.0167 2.74203 9.82324C2.54109 9.62983 2.4282 9.36751 2.4282 9.09398V7.53737C2.0354 7.49499 1.67259 7.31478 1.40912 7.03117C1.14565 6.74756 1 6.38045 1 6C1 5.61955 1.14565 5.25244 1.40912 4.96883C1.67259 4.68522 2.0354 4.50501 2.4282 4.46263V2.90601C2.4282 2.63249 2.54109 2.37017 2.74203 2.17676C2.94297 1.98334 3.2155 1.87469 3.49967 1.87469H5.11689Z" fill="#5F5F5F"/>
</svg>
