<svg width="12" height="12" viewBox="0 0 12 12" fill="none" xmlns="http://www.w3.org/2000/svg">
<path d="M1.20312 2.09802C1.20312 1.60122 1.60573 1.19922 2.10312 1.19922H2.70312C3.19932 1.19922 3.60252 1.60122 3.60252 2.09802V9.88722C3.60252 10.3834 3.19932 10.7854 2.70252 10.7854H2.10252C1.60573 10.7854 1.20312 10.3834 1.20312 9.88722V2.09802ZM2.10312 1.79802C2.02356 1.79802 1.94725 1.82963 1.89099 1.88589C1.83473 1.94215 1.80312 2.01845 1.80312 2.09802V9.88722C1.80328 9.96668 1.83496 10.0428 1.8912 10.099C1.94745 10.1551 2.02366 10.1866 2.10312 10.1866H2.70312C2.78259 10.1865 2.85874 10.1548 2.91487 10.0985C2.971 10.0423 3.00253 9.96608 3.00252 9.88662V2.09862C3.00252 2.01905 2.97092 1.94275 2.91466 1.88649C2.8584 1.83023 2.78209 1.79862 2.70252 1.79862L2.10312 1.79802ZM4.20192 2.09802C4.20192 1.60122 4.60512 1.19922 5.10192 1.19922H5.70192C6.19872 1.19922 6.60132 1.60122 6.60132 2.09802V9.88722C6.60132 10.3834 6.19872 10.7854 5.70132 10.7854H5.10132C4.60512 10.7854 4.20192 10.3834 4.20192 9.88722V2.09802ZM5.10192 1.79802C5.02236 1.79802 4.94605 1.82963 4.88979 1.88589C4.83353 1.94215 4.80192 2.01845 4.80192 2.09802V9.88722C4.80208 9.96668 4.83376 10.0428 4.89 10.099C4.94625 10.1551 5.02246 10.1866 5.10192 10.1866H5.70192C5.78149 10.1866 5.8578 10.155 5.91406 10.0988C5.97032 10.0425 6.00192 9.96618 6.00192 9.88662V2.09862C6.00192 2.01905 5.97032 1.94275 5.91406 1.88649C5.8578 1.83023 5.78149 1.79862 5.70192 1.79862L5.10192 1.79802ZM9.43392 3.69342C9.40651 3.57464 9.35526 3.46268 9.28327 3.36431C9.21128 3.26594 9.12006 3.18322 9.01514 3.12116C8.91022 3.05911 8.79379 3.01901 8.67291 3.00331C8.55203 2.98761 8.42922 2.99663 8.31192 3.02982L7.86492 3.15582C7.64682 3.21781 7.46015 3.35983 7.34224 3.5535C7.22433 3.74717 7.18386 3.9782 7.22892 4.20042L8.43072 10.0804C8.45528 10.1996 8.50374 10.3125 8.57318 10.4124C8.64261 10.5124 8.73159 10.5971 8.83473 10.6617C8.93786 10.7263 9.05302 10.7692 9.17323 10.788C9.29344 10.8068 9.41621 10.801 9.53412 10.771L10.1251 10.621C10.5991 10.501 10.8895 10.0246 10.7803 9.54882L9.43392 3.69342ZM8.47512 3.60642C8.51422 3.59529 8.55517 3.59222 8.59549 3.5974C8.63581 3.60258 8.67465 3.61589 8.70967 3.63654C8.74468 3.65719 8.77513 3.68474 8.79917 3.71752C8.82322 3.7503 8.84035 3.78762 8.84952 3.82722L10.1953 9.68322C10.2126 9.75945 10.1994 9.83941 10.1587 9.90609C10.1179 9.97277 10.0527 10.0209 9.97692 10.0402L9.38592 10.1902C9.34665 10.2002 9.30575 10.2022 9.2657 10.1959C9.22565 10.1897 9.18729 10.1754 9.15291 10.1539C9.11854 10.1324 9.08887 10.1042 9.06571 10.071C9.04254 10.0377 9.02635 10.0001 9.01812 9.96042L7.81632 4.08042C7.80135 4.0064 7.81484 3.92946 7.8541 3.86496C7.89336 3.80045 7.9555 3.75312 8.02812 3.73242L8.47512 3.60642Z" fill="#5F5F5F"/>
</svg>
