<svg width="12" height="13" viewBox="0 0 12 13" fill="none" xmlns="http://www.w3.org/2000/svg">
<path d="M8.26195 5.68828H10.2698C10.5643 5.68828 10.8031 5.94696 10.8031 6.26606V9.64139C10.8031 10.33 10.2449 10.8883 9.55623 10.8883H2.40312M1.20312 2.69106V9.83828C1.20312 10.4182 1.67323 10.8883 2.25312 10.8883C2.83302 10.8883 3.30312 10.4182 3.30312 9.83828V6.26606C3.30312 5.94696 3.54191 5.68828 3.83646 5.68828H9.73646V4.32243C9.73646 4.00333 9.49768 3.74465 9.20312 3.74465H5.6894L4.87442 2.3776C4.77619 2.21281 4.60748 2.11328 4.4264 2.11328H1.73646C1.44191 2.11328 1.20312 2.37196 1.20312 2.69106Z" stroke="#5F5F5F" stroke-width="0.8" stroke-linecap="round" stroke-linejoin="round"/>
</svg>
