<svg width="15" height="12" viewBox="0 0 15 12" fill="none" xmlns="http://www.w3.org/2000/svg">
<path d="M12.4713 5.8785C12.4567 5.84888 12.1038 5.14425 11.3192 4.43813C10.2738 3.49725 8.95333 3 7.5 3C6.04667 3 4.72625 3.49725 3.68083 4.43813C2.89625 5.14425 2.54166 5.85 2.52875 5.8785C2.50979 5.91687 2.5 5.95839 2.5 6.00038C2.5 6.04236 2.50979 6.08388 2.52875 6.12225C2.54333 6.15188 2.89625 6.85613 3.68083 7.56225C4.72625 8.50275 6.04667 9 7.5 9C8.95333 9 10.2738 8.50275 11.3192 7.56225C12.1038 6.85613 12.4567 6.15188 12.4713 6.12225C12.4902 6.08388 12.5 6.04236 12.5 6.00038C12.5 5.95839 12.4902 5.91687 12.4713 5.8785ZM7.5 8.4C6.2175 8.4 5.09708 7.98038 4.16958 7.15313C3.78902 6.81251 3.46524 6.42411 3.20833 6C3.46517 5.57585 3.78895 5.18744 4.16958 4.84688C5.09708 4.01963 6.2175 3.6 7.5 3.6C8.7825 3.6 9.90292 4.01963 10.8304 4.84688C11.2117 5.18736 11.5362 5.57577 11.7938 6C11.4933 6.50475 10.1846 8.4 7.5 8.4ZM7.5 4.2C7.10444 4.2 6.71776 4.30557 6.38886 4.50335C6.05996 4.70114 5.80361 4.98226 5.65224 5.31117C5.50086 5.64008 5.46126 6.002 5.53843 6.35116C5.6156 6.70033 5.80608 7.02106 6.08579 7.27279C6.36549 7.52453 6.72186 7.69596 7.10982 7.76541C7.49778 7.83487 7.89991 7.79922 8.26537 7.66298C8.63082 7.52675 8.94318 7.29604 9.16294 7.00003C9.3827 6.70402 9.5 6.35601 9.5 6C9.49945 5.52276 9.28856 5.06521 8.91361 4.72776C8.53865 4.3903 8.03026 4.2005 7.5 4.2ZM7.5 7.2C7.23629 7.2 6.9785 7.12962 6.75924 6.99776C6.53997 6.86591 6.36908 6.67849 6.26816 6.45922C6.16724 6.23995 6.14084 5.99867 6.19229 5.76589C6.24373 5.53311 6.37072 5.31929 6.55719 5.15147C6.74366 4.98365 6.98124 4.86936 7.23988 4.82306C7.49852 4.77676 7.76661 4.80052 8.01024 4.89134C8.25388 4.98217 8.46212 5.13598 8.60863 5.33332C8.75514 5.53065 8.83333 5.76266 8.83333 6C8.83333 6.31826 8.69286 6.62348 8.44281 6.84853C8.19276 7.07357 7.85362 7.2 7.5 7.2Z" fill="#5F5F5F"/>
</svg>
