<svg width="16" height="16" viewBox="0 0 16 16" fill="none" xmlns="http://www.w3.org/2000/svg">
<mask id="path-1-inside-1_6794_7223" fill="white">
<path d="M1.8125 0.666016H10.0885L13.8125 4.39002V7.33268H12.9984V6.66602V5.33268H9.33171V1.33268H2.66504V7.99935V14.666H13.8125V15.3327H1.8125V0.666016ZM10.0885 1.99935V4.66602H12.665L11.416 3.33268L10.0885 1.99935ZM4.47917 7.99935V13.3327H3.8125V7.99935H4.47917ZM5.47917 9.33268C5.47917 8.97906 5.61964 8.63992 5.86969 8.38987C6.11974 8.13983 6.45888 7.99935 6.8125 7.99935H7.8125V8.66602H6.2972V12.666H6.96387L7.8125 12.6856V13.3327H6.8125C6.45888 13.3327 6.11974 13.1922 5.86969 12.9422C5.61964 12.6921 5.47917 12.353 5.47917 11.9993V9.33268ZM8.2972 9.33268C8.2972 8.97906 8.28631 8.63992 8.53636 8.38987C8.78641 8.13983 9.12554 7.99935 9.47917 7.99935H10.1458C10.4995 7.99935 10.8386 8.13983 11.0886 8.38987C11.3387 8.63992 11.4792 8.97906 11.4792 9.33268V11.9993C11.4792 12.353 11.3387 12.6921 11.0886 12.9422C10.8386 13.1922 10.4995 13.3327 10.1458 13.3327H9.47917C9.12554 13.3327 8.78641 13.1922 8.53636 12.9422C8.28631 12.6921 8.2972 12.353 8.2972 11.9993V9.33268ZM11.8125 7.99935H13.8125C14.1661 7.99935 14.5053 8.13983 14.7553 8.38987C15.0054 8.63992 15.1458 8.97906 15.1458 9.33268V13.3327H14.416V8.66602H12.4792V13.3327H11.8125V7.99935ZM8.96387 8.66602V12.666H9.8125H10.7493V8.66602H8.96387Z"/>
</mask>
<path d="M1.8125 0.666016H10.0885L13.8125 4.39002V7.33268H12.9984V6.66602V5.33268H9.33171V1.33268H2.66504V7.99935V14.666H13.8125V15.3327H1.8125V0.666016ZM10.0885 1.99935V4.66602H12.665L11.416 3.33268L10.0885 1.99935ZM4.47917 7.99935V13.3327H3.8125V7.99935H4.47917ZM5.47917 9.33268C5.47917 8.97906 5.61964 8.63992 5.86969 8.38987C6.11974 8.13983 6.45888 7.99935 6.8125 7.99935H7.8125V8.66602H6.2972V12.666H6.96387L7.8125 12.6856V13.3327H6.8125C6.45888 13.3327 6.11974 13.1922 5.86969 12.9422C5.61964 12.6921 5.47917 12.353 5.47917 11.9993V9.33268ZM8.2972 9.33268C8.2972 8.97906 8.28631 8.63992 8.53636 8.38987C8.78641 8.13983 9.12554 7.99935 9.47917 7.99935H10.1458C10.4995 7.99935 10.8386 8.13983 11.0886 8.38987C11.3387 8.63992 11.4792 8.97906 11.4792 9.33268V11.9993C11.4792 12.353 11.3387 12.6921 11.0886 12.9422C10.8386 13.1922 10.4995 13.3327 10.1458 13.3327H9.47917C9.12554 13.3327 8.78641 13.1922 8.53636 12.9422C8.28631 12.6921 8.2972 12.353 8.2972 11.9993V9.33268ZM11.8125 7.99935H13.8125C14.1661 7.99935 14.5053 8.13983 14.7553 8.38987C15.0054 8.63992 15.1458 8.97906 15.1458 9.33268V13.3327H14.416V8.66602H12.4792V13.3327H11.8125V7.99935ZM8.96387 8.66602V12.666H9.8125H10.7493V8.66602H8.96387Z" fill="#5F5F5F"/>
<path d="M1.8125 0.666016V-1.33398H-0.1875V0.666016H1.8125ZM10.0885 0.666016L11.5027 -0.748198L10.9169 -1.33398H10.0885V0.666016ZM13.8125 4.39002H15.8125V3.56159L15.2267 2.9758L13.8125 4.39002ZM13.8125 7.33268V9.33268H15.8125V7.33268H13.8125ZM12.9984 7.33268H10.9984V9.33268H12.9984V7.33268ZM12.9984 5.33268H14.9984V3.33268H12.9984V5.33268ZM9.33171 5.33268H7.33171V7.33268H9.33171V5.33268ZM9.33171 1.33268H11.3317V-0.667318H9.33171V1.33268ZM2.66504 1.33268V-0.667318H0.665039V1.33268H2.66504ZM2.66504 14.666H0.665039V16.666H2.66504V14.666ZM13.8125 14.666H15.8125V12.666H13.8125V14.666ZM13.8125 15.3327V17.3327H15.8125V15.3327H13.8125ZM1.8125 15.3327H-0.1875V17.3327H1.8125V15.3327ZM10.0885 1.99935L11.5058 0.588231L8.0885 -2.84405V1.99935H10.0885ZM10.0885 4.66602H8.0885V6.66602H10.0885V4.66602ZM12.665 4.66602V6.66602H17.279L14.1246 3.2987L12.665 4.66602ZM4.47917 7.99935H6.47917V5.99935H4.47917V7.99935ZM4.47917 13.3327V15.3327H6.47917V13.3327H4.47917ZM3.8125 13.3327H1.8125V15.3327H3.8125V13.3327ZM3.8125 7.99935V5.99935H1.8125V7.99935H3.8125ZM6.8125 7.99935V9.99935V7.99935ZM7.8125 7.99935H9.8125V5.99935H7.8125V7.99935ZM7.8125 8.66602V10.666H9.8125V8.66602H7.8125ZM6.2972 8.66602V6.66602H4.2972V8.66602H6.2972ZM6.2972 12.666H4.2972V14.666H6.2972V12.666ZM7.8125 12.6856H9.8125V10.7312L7.8586 10.6861L7.8125 12.6856ZM7.8125 13.3327V15.3327H9.8125V13.3327H7.8125ZM9.47917 7.99935V9.99935V7.99935ZM11.8125 7.99935V5.99935H9.8125V7.99935H11.8125ZM15.1458 13.3327V15.3327H17.1458V13.3327H15.1458ZM14.416 13.3327H12.416V15.3327H14.416V13.3327ZM14.416 8.66602H16.416V6.66602H14.416V8.66602ZM12.4792 8.66602V6.66602H10.4792V8.66602H12.4792ZM12.4792 13.3327V15.3327H14.4792V13.3327H12.4792ZM11.8125 13.3327H9.8125V15.3327H11.8125V13.3327ZM8.96387 8.66602V6.66602H6.96387V8.66602H8.96387ZM8.96387 12.666H6.96387V14.666H8.96387V12.666ZM10.7493 12.666V14.666H12.7493V12.666H10.7493ZM10.7493 8.66602H12.7493V6.66602H10.7493V8.66602ZM6.96387 12.666L7.00996 10.6665L6.98692 10.666H6.96387V12.666ZM11.416 3.33268L12.8756 1.96537L12.8548 1.94314L12.8333 1.92156L11.416 3.33268ZM1.8125 0.666016V2.66602H10.0885V0.666016V-1.33398H1.8125V0.666016ZM10.0885 0.666016L8.67429 2.08023L12.3983 5.80423L13.8125 4.39002L15.2267 2.9758L11.5027 -0.748198L10.0885 0.666016ZM13.8125 4.39002H11.8125V7.33268H13.8125H15.8125V4.39002H13.8125ZM13.8125 7.33268V5.33268H12.9984V7.33268V9.33268H13.8125V7.33268ZM12.9984 5.33268V3.33268H9.33171V5.33268V7.33268H12.9984V5.33268ZM9.33171 5.33268H11.3317V1.33268H9.33171H7.33171V5.33268H9.33171ZM9.33171 1.33268V-0.667318H2.66504V1.33268V3.33268H9.33171V1.33268ZM2.66504 14.666V16.666H13.8125V14.666V12.666H2.66504V14.666ZM13.8125 14.666H11.8125V15.3327H13.8125H15.8125V14.666H13.8125ZM13.8125 15.3327V13.3327H1.8125V15.3327V17.3327H13.8125V15.3327ZM1.8125 15.3327H3.8125V0.666016H1.8125H-0.1875V15.3327H1.8125ZM10.0885 1.99935H8.0885V4.66602H10.0885H12.0885V1.99935H10.0885ZM10.0885 4.66602V6.66602H12.665V4.66602V2.66602H10.0885V4.66602ZM4.47917 7.99935H2.47917V13.3327H4.47917H6.47917V7.99935H4.47917ZM4.47917 13.3327V11.3327H3.8125V13.3327V15.3327H4.47917V13.3327ZM3.8125 13.3327H5.8125V7.99935H3.8125H1.8125V13.3327H3.8125ZM3.8125 7.99935V9.99935H4.47917V7.99935V5.99935H3.8125V7.99935ZM5.47917 9.33268H7.47917C7.47917 9.50949 7.40893 9.67906 7.2839 9.80409L5.86969 8.38987L4.45548 6.97566C3.83036 7.60078 3.47917 8.44863 3.47917 9.33268H5.47917ZM5.86969 8.38987L7.2839 9.80409C7.15888 9.92911 6.98931 9.99935 6.8125 9.99935V7.99935V5.99935C5.92844 5.99935 5.0806 6.35054 4.45548 6.97566L5.86969 8.38987ZM6.8125 7.99935V9.99935H7.8125V7.99935V5.99935H6.8125V7.99935ZM7.8125 7.99935H5.8125V8.66602H7.8125H9.8125V7.99935H7.8125ZM7.8125 8.66602V6.66602H6.2972V8.66602V10.666H7.8125V8.66602ZM6.2972 8.66602H4.2972V12.666H6.2972H8.2972V8.66602H6.2972ZM7.8125 12.6856H5.8125V13.3327H7.8125H9.8125V12.6856H7.8125ZM7.8125 13.3327V11.3327H6.8125V13.3327V15.3327H7.8125V13.3327ZM6.8125 13.3327V11.3327C6.98931 11.3327 7.15888 11.4029 7.2839 11.5279L5.86969 12.9422L4.45548 14.3564C5.0806 14.9815 5.92844 15.3327 6.8125 15.3327V13.3327ZM5.86969 12.9422L7.2839 11.5279C7.40893 11.653 7.47917 11.8225 7.47917 11.9993H5.47917H3.47917C3.47917 12.8834 3.83036 13.7313 4.45548 14.3564L5.86969 12.9422ZM5.47917 11.9993H7.47917V9.33268H5.47917H3.47917V11.9993H5.47917ZM8.2972 9.33268H10.2972C10.2972 9.22105 10.2968 9.18081 10.2983 9.13887C10.2994 9.10483 10.3006 9.12478 10.292 9.17305C10.2828 9.22511 10.2598 9.32426 10.2028 9.44521C10.1432 9.57169 10.0586 9.69603 9.95057 9.80409L8.53636 8.38987L7.12214 6.97566C6.17364 7.92417 6.2972 9.23126 6.2972 9.33268H8.2972ZM8.53636 8.38987L9.95057 9.80409C9.82555 9.92911 9.65598 9.99935 9.47917 9.99935V7.99935V5.99935C8.59511 5.99935 7.74726 6.35054 7.12214 6.97566L8.53636 8.38987ZM9.47917 7.99935V9.99935H10.1458V7.99935V5.99935H9.47917V7.99935ZM10.1458 7.99935V9.99935C9.96902 9.99935 9.79945 9.92911 9.67443 9.80409L11.0886 8.38987L12.5029 6.97566C11.8777 6.35054 11.0299 5.99935 10.1458 5.99935V7.99935ZM11.0886 8.38987L9.67443 9.80409C9.5494 9.67906 9.47917 9.50949 9.47917 9.33268H11.4792H13.4792C13.4792 8.44863 13.128 7.60078 12.5029 6.97566L11.0886 8.38987ZM11.4792 9.33268H9.47917V11.9993H11.4792H13.4792V9.33268H11.4792ZM11.4792 11.9993H9.47917C9.47917 11.8225 9.5494 11.653 9.67443 11.5279L11.0886 12.9422L12.5029 14.3564C13.128 13.7313 13.4792 12.8834 13.4792 11.9993H11.4792ZM11.0886 12.9422L9.67443 11.5279C9.79945 11.4029 9.96902 11.3327 10.1458 11.3327V13.3327V15.3327C11.0299 15.3327 11.8777 14.9815 12.5029 14.3564L11.0886 12.9422ZM10.1458 13.3327V11.3327H9.47917V13.3327V15.3327H10.1458V13.3327ZM9.47917 13.3327V11.3327C9.65598 11.3327 9.82555 11.4029 9.95057 11.5279L8.53636 12.9422L7.12214 14.3564C7.74726 14.9815 8.59511 15.3327 9.47917 15.3327V13.3327ZM8.53636 12.9422L9.95057 11.5279C10.0586 11.636 10.1432 11.7603 10.2028 11.8868C10.2598 12.0078 10.2828 12.1069 10.292 12.159C10.3006 12.2073 10.2994 12.2272 10.2983 12.1932C10.2968 12.1512 10.2972 12.111 10.2972 11.9993H8.2972H6.2972C6.2972 12.1008 6.17364 13.4079 7.12214 14.3564L8.53636 12.9422ZM8.2972 11.9993H10.2972V9.33268H8.2972H6.2972V11.9993H8.2972ZM11.8125 7.99935V9.99935H13.8125V7.99935V5.99935H11.8125V7.99935ZM13.8125 7.99935V9.99935C13.6357 9.99935 13.4661 9.92911 13.3411 9.80409L14.7553 8.38987L16.1695 6.97566C15.5444 6.35054 14.6966 5.99935 13.8125 5.99935V7.99935ZM14.7553 8.38987L13.3411 9.80409C13.2161 9.67906 13.1458 9.50949 13.1458 9.33268H15.1458H17.1458C17.1458 8.44863 16.7946 7.60078 16.1695 6.97566L14.7553 8.38987ZM15.1458 9.33268H13.1458V13.3327H15.1458H17.1458V9.33268H15.1458ZM15.1458 13.3327V11.3327H14.416V13.3327V15.3327H15.1458V13.3327ZM14.416 13.3327H16.416V8.66602H14.416H12.416V13.3327H14.416ZM14.416 8.66602V6.66602H12.4792V8.66602V10.666H14.416V8.66602ZM12.4792 8.66602H10.4792V13.3327H12.4792H14.4792V8.66602H12.4792ZM12.4792 13.3327V11.3327H11.8125V13.3327V15.3327H12.4792V13.3327ZM11.8125 13.3327H13.8125V7.99935H11.8125H9.8125V13.3327H11.8125ZM8.96387 8.66602H6.96387V12.666H8.96387H10.9639V8.66602H8.96387ZM10.7493 12.666H12.7493V8.66602H10.7493H8.74935V12.666H10.7493ZM10.7493 8.66602V6.66602H8.96387V8.66602V10.666H10.7493V8.66602ZM6.2972 12.666V14.666H6.96387V12.666V10.666H6.2972V12.666ZM6.96387 12.666L6.91777 14.6655L7.7664 14.685L7.8125 12.6856L7.8586 10.6861L7.00996 10.6665L6.96387 12.666ZM8.96387 12.666V14.666H9.8125V12.666V10.666H8.96387V12.666ZM9.8125 12.666V14.666H10.7493V12.666V10.666H9.8125V12.666ZM12.9984 7.33268H14.9984V6.66602H12.9984H10.9984V7.33268H12.9984ZM12.9984 6.66602H14.9984V5.33268H12.9984H10.9984V6.66602H12.9984ZM12.665 4.66602L14.1246 3.2987L12.8756 1.96537L11.416 3.33268L9.95641 4.7L11.2054 6.03333L12.665 4.66602ZM11.416 3.33268L12.8333 1.92156L11.5058 0.588231L10.0885 1.99935L8.6712 3.41047L9.99871 4.7438L11.416 3.33268ZM2.66504 1.33268H0.665039V7.99935H2.66504H4.66504V1.33268H2.66504ZM2.66504 7.99935H0.665039V14.666H2.66504H4.66504V7.99935H2.66504Z" fill="#5F5F5F" mask="url(#path-1-inside-1_6794_7223)"/>
</svg>
