<svg width="12" height="12" viewBox="0 0 12 12" fill="none" xmlns="http://www.w3.org/2000/svg">
<g clip-path="url(#clip0_6849_829)">
<path d="M11.1611 0.0187673L6.20362 1.36164C6.07762 1.39539 5.80387 1.39502 5.67862 1.35977L0.848625 0.0213923C0.41775 -0.0974827 0 0.213392 0 0.657392V9.77589C0 10.152 0.285 10.5116 0.648 10.6129L5.478 11.9516C5.60737 11.9876 5.7735 12.0075 5.946 12.0075C6.06412 12.0075 6.23887 11.9985 6.39975 11.9543L11.3572 10.6114C11.7214 10.5131 12.0075 10.1539 12.0075 9.77627V0.657392C12.0079 0.213767 11.5905 -0.0978577 11.1611 0.0187673ZM5.62875 11.2144L0.836625 9.88952C0.800625 9.87977 0.749625 9.81339 0.749625 9.77589V0.775517L5.47762 2.08277C5.52337 2.09552 5.57475 2.10564 5.62837 2.11389V11.2148L5.62875 11.2144ZM11.2575 9.77589C11.2575 9.81302 11.1967 9.87714 11.1607 9.88727L6.37837 11.1825V2.08989C6.38512 2.08802 6.39262 2.08727 6.39937 2.08539L11.2571 0.771392L11.2575 9.77589ZM7.527 4.29302C7.56075 4.29302 7.59525 4.28889 7.629 4.27914L10.2532 3.54039C10.4527 3.48414 10.569 3.27714 10.5127 3.07764C10.4565 2.87814 10.2484 2.76264 10.05 2.81814L7.42575 3.55689C7.22625 3.61314 7.11 3.82014 7.16625 4.01964C7.21275 4.18502 7.36312 4.29302 7.527 4.29302ZM7.52737 6.54302C7.56112 6.54302 7.59562 6.53852 7.62937 6.52914L10.2536 5.79039C10.4531 5.73414 10.5694 5.52714 10.5131 5.32764C10.4569 5.12814 10.2487 5.01264 10.0504 5.06777L7.42612 5.80652C7.22662 5.86277 7.11037 6.06977 7.16662 6.26889C7.21312 6.43464 7.3635 6.54264 7.52737 6.54264V6.54302ZM7.52737 8.79302C7.56112 8.79302 7.59562 8.78852 7.62937 8.77914L10.2536 8.04039C10.4531 7.98377 10.5694 7.77714 10.5131 7.57764C10.4569 7.37814 10.2487 7.26264 10.0504 7.31814L7.42612 8.05689C7.22662 8.11352 7.11037 8.32014 7.16662 8.51964C7.21312 8.68502 7.3635 8.79302 7.52737 8.79302ZM4.62825 3.55689L2.004 2.81814C1.80562 2.76302 1.5975 2.87852 1.54125 3.07764C1.485 3.27677 1.60125 3.48377 1.80075 3.54039L4.425 4.27914C4.45875 4.28852 4.49287 4.29302 4.52662 4.29302C4.6905 4.29302 4.84087 4.18502 4.88737 4.01964C4.94325 3.82052 4.82737 3.61352 4.6275 3.55689H4.62825ZM4.62825 5.80689L2.004 5.06814C1.80562 5.01264 1.5975 5.12852 1.54125 5.32802C1.485 5.52752 1.60125 5.73414 1.80075 5.79077L4.425 6.52952C4.45875 6.53927 4.49287 6.54339 4.52662 6.54339C4.6905 6.54339 4.84087 6.43539 4.88737 6.26964C4.94325 6.07052 4.82737 5.86352 4.6275 5.80689H4.62825ZM4.62825 8.05689L2.004 7.31814C1.80562 7.26264 1.5975 7.37852 1.54125 7.57764C1.485 7.77677 1.60125 7.98377 1.80075 8.04039L4.425 8.77914C4.45875 8.78889 4.49287 8.79302 4.52662 8.79302C4.6905 8.79302 4.84087 8.68502 4.88737 8.51927C4.94325 8.31977 4.82737 8.11314 4.6275 8.05652L4.62825 8.05689Z" fill="#5F5F5F"/>
</g>
<defs>
<clipPath id="clip0_6849_829">
<rect width="12" height="12" fill="white"/>
</clipPath>
</defs>
</svg>
