<svg width="14" height="14" viewBox="0 0 14 14" fill="none" xmlns="http://www.w3.org/2000/svg">
<path d="M2.76475 3.10288C2.83269 3.0356 2.92403 2.9986 3.01868 3.00004C3.11334 3.00148 3.20356 3.04122 3.2695 3.11054C3.34124 3.18747 3.38057 3.29004 3.37902 3.39623C3.37748 3.50242 3.3352 3.60376 3.26125 3.67849C2.29154 4.68005 1.74843 6.0318 1.75 7.43983C1.75 8.96305 2.3725 10.3378 3.373 11.3129C3.41146 11.3495 3.44243 11.3934 3.46413 11.4423C3.48583 11.4911 3.49783 11.5438 3.49944 11.5974C3.50104 11.651 3.49222 11.7044 3.47348 11.7545C3.45474 11.8046 3.42645 11.8504 3.39025 11.8893C3.32573 11.9573 3.23777 11.997 3.14505 11.9998C3.05233 12.0027 2.96218 11.9685 2.89375 11.9046C2.29523 11.3325 1.81829 10.641 1.49253 9.87295C1.16676 9.10491 0.999118 8.27674 1 7.43983C1 5.74516 1.675 4.21123 2.76475 3.10288ZM10.7387 3.67849C10.6649 3.60366 10.6228 3.50227 10.6214 3.39607C10.62 3.28988 10.6594 3.18737 10.7312 3.11054C10.7972 3.04145 10.8872 3.00186 10.9817 3.00042C11.0762 2.99899 11.1673 3.03583 11.2352 3.10288C11.7952 3.6712 12.2394 4.34701 12.5423 5.09135C12.8452 5.8357 13.0008 6.63386 13 7.43983C13 9.20033 12.2725 10.7878 11.1062 11.9046C11.0378 11.9685 10.9477 12.0027 10.855 11.9998C10.7622 11.997 10.6743 11.9573 10.6097 11.8893C10.5737 11.8504 10.5455 11.8047 10.5268 11.7547C10.5081 11.7046 10.4993 11.6513 10.5009 11.5978C10.5025 11.5443 10.5145 11.4917 10.5361 11.4429C10.5578 11.3941 10.5887 11.3502 10.627 11.3137C11.1407 10.814 11.5494 10.2129 11.8284 9.54693C12.1075 8.88099 12.2509 8.1641 12.25 7.43983C12.2518 6.03153 11.7086 4.68024 10.7387 3.67849ZM4.099 4.44698C4.16584 4.38202 4.25522 4.34682 4.34749 4.34911C4.43975 4.35141 4.52735 4.39102 4.591 4.45923C4.747 4.61844 4.73125 4.88022 4.5775 5.04096C3.9665 5.6838 3.62485 6.54424 3.625 7.43983C3.625 8.42724 4.03225 9.31821 4.6855 9.94663C4.8505 10.1051 4.873 10.376 4.71175 10.5406C4.64994 10.6062 4.56578 10.645 4.4767 10.649C4.38762 10.653 4.30045 10.6218 4.23325 10.562C3.80564 10.1674 3.46383 9.68563 3.22988 9.14786C2.99593 8.61008 2.87504 8.02823 2.875 7.43983C2.87418 6.88303 2.98198 6.33163 3.19213 5.8178C3.40228 5.30396 3.71056 4.83796 4.099 4.44698ZM9.4225 5.04096C9.26875 4.88022 9.253 4.61844 9.409 4.45923C9.47265 4.39102 9.56025 4.35141 9.65251 4.34911C9.74478 4.34682 9.83416 4.38202 9.901 4.44698C10.2894 4.83796 10.5977 5.30396 10.8079 5.8178C11.018 6.33163 11.1258 6.88303 11.125 7.43983C11.1252 8.0283 11.0044 8.61026 10.7706 9.14818C10.5368 9.68609 10.1951 10.168 9.7675 10.5628C9.70002 10.6229 9.61242 10.654 9.52298 10.6497C9.43354 10.6455 9.34917 10.6061 9.2875 10.5398C9.127 10.376 9.1495 10.1051 9.3145 9.94663C9.64935 9.62462 9.91616 9.23614 10.0985 8.80506C10.2809 8.37397 10.375 7.90938 10.375 7.43983C10.3751 6.54424 10.0335 5.6838 9.4225 5.04096ZM7 6.48304C6.75136 6.48304 6.5129 6.58384 6.33709 6.76328C6.16127 6.94271 6.0625 7.18607 6.0625 7.43983C6.0625 7.69359 6.16127 7.93695 6.33709 8.11639C6.5129 8.29582 6.75136 8.39662 7 8.39662C7.24864 8.39662 7.4871 8.29582 7.66291 8.11639C7.83873 7.93695 7.9375 7.69359 7.9375 7.43983C7.9375 7.18607 7.83873 6.94271 7.66291 6.76328C7.4871 6.58384 7.24864 6.48304 7 6.48304Z" fill="#5F5F5F"/>
</svg>
