<svg width="16" height="16" viewBox="0 0 16 16" fill="none" xmlns="http://www.w3.org/2000/svg">
<path d="M8.61594 1.50656L12.9559 3.84656C13.4626 4.1199 13.4626 4.8999 12.9559 5.17323L8.61594 7.51323C8.22927 7.7199 7.77594 7.7199 7.38927 7.51323L3.04927 5.17323C2.5426 4.8999 2.5426 4.1199 3.04927 3.84656L7.38927 1.50656C7.77594 1.2999 8.22927 1.2999 8.61594 1.50656Z" stroke="#5F5F5F" stroke-width="0.8" stroke-linecap="round" stroke-linejoin="round"/>
<path d="M2.40927 6.75323L6.4426 8.77323C6.9426 9.02656 7.2626 9.5399 7.2626 10.0999V13.9132C7.2626 14.4666 6.6826 14.8199 6.18927 14.5732L2.15594 12.5532C1.65594 12.2999 1.33594 11.7866 1.33594 11.2266V7.41323C1.33594 6.8599 1.91594 6.50656 2.40927 6.75323Z" stroke="#5F5F5F" stroke-width="0.8" stroke-linecap="round" stroke-linejoin="round"/>
<path d="M13.5959 6.75323L9.5626 8.77323C9.0626 9.02656 8.7426 9.5399 8.7426 10.0999V13.9132C8.7426 14.4666 9.3226 14.8199 9.81594 14.5732L13.8493 12.5532C14.3493 12.2999 14.6693 11.7866 14.6693 11.2266V7.41323C14.6693 6.8599 14.0893 6.50656 13.5959 6.75323Z" stroke="#5F5F5F" stroke-width="0.8" stroke-linecap="round" stroke-linejoin="round"/>
</svg>
