<svg width="16" height="16" viewBox="0 0 16 16" fill="none" xmlns="http://www.w3.org/2000/svg">
<path fill-rule="evenodd" clip-rule="evenodd" d="M4.18787 2.66602H11.8069C12.2111 2.66602 12.5986 2.82656 12.8844 3.11233C13.1702 3.3981 13.3307 3.78569 13.3307 4.18982V11.8089C13.3307 12.213 13.1702 12.6006 12.8844 12.8864C12.5986 13.1721 12.2111 13.3327 11.8069 13.3327H4.18787C3.78373 13.3327 3.39615 13.1721 3.11038 12.8864C2.82461 12.6006 2.66406 12.213 2.66406 11.8089V4.18982C2.66406 3.78569 2.82461 3.3981 3.11038 3.11233C3.39615 2.82656 3.78373 2.66602 4.18787 2.66602Z" stroke="#5F5F5F" stroke-width="0.6" stroke-linecap="round" stroke-linejoin="round"/>
<path d="M13.3307 10.2841L11.045 7.99842L8.7593 10.2727M11.8069 13.3318L4.94978 6.47461L2.66406 8.76032" stroke="#5F5F5F" stroke-width="0.6" stroke-linecap="round" stroke-linejoin="round"/>
<path d="M10.6603 6.09412C11.0811 6.09412 11.4222 5.75301 11.4222 5.33222C11.4222 4.91143 11.0811 4.57031 10.6603 4.57031C10.2396 4.57031 9.89844 4.91143 9.89844 5.33222C9.89844 5.75301 10.2396 6.09412 10.6603 6.09412Z" fill="#5F5F5F"/>
</svg>
