<svg width="16" height="16" viewBox="0 0 16 16" fill="none" xmlns="http://www.w3.org/2000/svg">
<path d="M8.5 11.25C8.5 11.3489 8.47068 11.4456 8.41574 11.5278C8.3608 11.61 8.28271 11.6741 8.19134 11.7119C8.09998 11.7498 7.99945 11.7597 7.90246 11.7404C7.80547 11.7211 7.71638 11.6735 7.64645 11.6036C7.57652 11.5336 7.5289 11.4445 7.50961 11.3475C7.49032 11.2506 7.50022 11.15 7.53806 11.0587C7.57591 10.9673 7.63999 10.8892 7.72222 10.8343C7.80444 10.7793 7.90111 10.75 8 10.75C8.13261 10.75 8.25979 10.8027 8.35356 10.8964C8.44732 10.9902 8.5 11.1174 8.5 11.25ZM8 4.75C6.75938 4.75 5.75 5.6475 5.75 6.75V7C5.75 7.0663 5.77634 7.12989 5.82323 7.17678C5.87011 7.22366 5.9337 7.25 6 7.25C6.06631 7.25 6.1299 7.22366 6.17678 7.17678C6.22366 7.12989 6.25 7.0663 6.25 7V6.75C6.25 5.92313 7.035 5.25 8 5.25C8.965 5.25 9.75 5.92313 9.75 6.75C9.75 7.57687 8.965 8.25 8 8.25C7.9337 8.25 7.87011 8.27634 7.82323 8.32322C7.77634 8.37011 7.75 8.4337 7.75 8.5V9C7.75 9.0663 7.77634 9.12989 7.82323 9.17678C7.87011 9.22366 7.9337 9.25 8 9.25C8.06631 9.25 8.1299 9.22366 8.17678 9.17678C8.22366 9.12989 8.25 9.0663 8.25 9V8.7375C9.375 8.62688 10.25 7.7775 10.25 6.75C10.25 5.6475 9.24063 4.75 8 4.75ZM14.25 8C14.25 9.23613 13.8834 10.4445 13.1967 11.4723C12.5099 12.5001 11.5338 13.3012 10.3918 13.7742C9.24974 14.2473 7.99307 14.3711 6.78069 14.1299C5.56831 13.8888 4.45466 13.2935 3.58059 12.4194C2.70651 11.5453 2.11125 10.4317 1.87009 9.21931C1.62894 8.00693 1.75271 6.75027 2.22576 5.60823C2.6988 4.46619 3.49988 3.49007 4.52769 2.80331C5.5555 2.11656 6.76387 1.75 8 1.75C9.65705 1.75182 11.2457 2.41088 12.4174 3.58259C13.5891 4.7543 14.2482 6.34296 14.25 8ZM13.75 8C13.75 6.86276 13.4128 5.75105 12.781 4.80547C12.1491 3.85989 11.2511 3.1229 10.2004 2.68769C9.14976 2.25249 7.99362 2.13862 6.87823 2.36048C5.76284 2.58235 4.73829 3.12998 3.93414 3.93414C3.12999 4.73829 2.58235 5.76284 2.36049 6.87823C2.13862 7.99362 2.25249 9.14975 2.6877 10.2004C3.1229 11.2511 3.85989 12.1491 4.80547 12.781C5.75106 13.4128 6.86276 13.75 8 13.75C9.52449 13.7483 10.9861 13.142 12.064 12.064C13.142 10.9861 13.7483 9.52449 13.75 8Z" fill="#5F5F5F"/>
</svg>
