<svg width="12" height="12" viewBox="0 0 12 12" fill="none" xmlns="http://www.w3.org/2000/svg">
<path d="M3.46875 9.9375V7.40625C3.46875 7.09559 3.72059 6.84375 4.03125 6.84375H7.96875C8.27941 6.84375 8.53125 7.09559 8.53125 7.40625V10.2188M7.40625 3.75L4.03125 3.75C3.72059 3.75 3.46875 3.49816 3.46875 3.1875L3.46875 1.5M10.2176 3.46756L8.53244 1.78244C8.3516 1.6016 8.10633 1.5 7.85059 1.5H2.46429C1.93172 1.5 1.5 1.93172 1.5 2.46429V9.53571C1.5 10.0683 1.93172 10.5 2.46429 10.5H9.53571C10.0683 10.5 10.5 10.0683 10.5 9.53571V4.14942C10.5 3.89367 10.3984 3.6484 10.2176 3.46756Z" stroke="#5F5F5F" stroke-width="0.8" stroke-linecap="round"/>
</svg>
