<svg width="15" height="15" viewBox="0 0 15 15" fill="none" xmlns="http://www.w3.org/2000/svg">
<path d="M4.16151 6.69877C4.04871 6.70479 3.93641 6.68019 3.83702 6.62768C3.73763 6.57517 3.65502 6.49681 3.59833 6.40125C3.54164 6.30569 3.51308 6.19666 3.5158 6.08621C3.51852 5.97577 3.55242 5.86821 3.61375 5.77543L6.874 0.708592C6.92523 0.61837 6.99943 0.542623 7.0894 0.488692C7.17937 0.434762 7.28205 0.404478 7.38751 0.400776C7.49296 0.397074 7.59761 0.42008 7.6913 0.467564C7.78499 0.515047 7.86454 0.585397 7.92225 0.671795L11.1615 5.75746C11.2254 5.84713 11.2629 5.95218 11.2701 6.06123C11.2773 6.17027 11.2538 6.27917 11.2023 6.37612C11.1507 6.47307 11.073 6.55438 10.9776 6.61125C10.8822 6.66812 10.7727 6.69839 10.661 6.69877H4.16151Z" stroke="#5F5F5F" stroke-width="0.8" stroke-linecap="round" stroke-linejoin="round"/>
<path d="M5.64844 8.41016H1.27344C0.790188 8.41016 0.398438 8.79328 0.398438 9.2659V13.5446C0.398438 14.0172 0.790188 14.4003 1.27344 14.4003H5.64844C6.13169 14.4003 6.52344 14.0172 6.52344 13.5446V9.2659C6.52344 8.79328 6.13169 8.41016 5.64844 8.41016Z" stroke="#5F5F5F" stroke-width="0.8" stroke-linecap="round" stroke-linejoin="round"/>
<path d="M11.3359 14.4003C13.0273 14.4003 14.3984 13.0594 14.3984 11.4052C14.3984 9.7511 13.0273 8.41016 11.3359 8.41016C9.64457 8.41016 8.27344 9.7511 8.27344 11.4052C8.27344 13.0594 9.64457 14.4003 11.3359 14.4003Z" stroke="#5F5F5F" stroke-width="0.8" stroke-linecap="round" stroke-linejoin="round"/>
</svg>
