<svg width="16" height="16" viewBox="0 0 16 16" fill="none" xmlns="http://www.w3.org/2000/svg">
<path d="M1.5 3.75C1.5 3.15326 1.73705 2.58097 2.15901 2.15901C2.58097 1.73705 3.15326 1.5 3.75 1.5H12.25C12.8467 1.5 13.419 1.73705 13.841 2.15901C14.2629 2.58097 14.5 3.15326 14.5 3.75V12.25C14.5 12.8467 14.2629 13.419 13.841 13.841C13.419 14.2629 12.8467 14.5 12.25 14.5H3.75C3.15326 14.5 2.58097 14.2629 2.15901 13.841C1.73705 13.419 1.5 12.8467 1.5 12.25V3.75ZM2 10.5V12.25C2 12.7141 2.18437 13.1592 2.51256 13.4874C2.84075 13.8156 3.28587 14 3.75 14H5.5V10.5H2ZM5.5 10V6H2V10H5.5ZM6 10.5V14H10V10.5H6ZM10 10V6H6V10H10ZM10.5 10.5V14H12.25C12.7141 14 13.1592 13.8156 13.4874 13.4874C13.8156 13.1592 14 12.7141 14 12.25V10.5H10.5ZM14 10V6H10.5V10H14ZM3.75 2C3.28587 2 2.84075 2.18437 2.51256 2.51256C2.18437 2.84075 2 3.28587 2 3.75V5.5H5.5V2H3.75ZM10 2H6V5.5H10V2ZM10.5 2V5.5H14V3.75C14 3.28587 13.8156 2.84075 13.4874 2.51256C13.1592 2.18437 12.7141 2 12.25 2H10.5Z" fill="#5F5F5F"/>
</svg>
