<svg width="16" height="16" viewBox="0 0 16 16" fill="none" xmlns="http://www.w3.org/2000/svg">
<path d="M1.6826 4.74065H14.3226M5.6826 1.40732V4.64732M10.3226 1.40732V4.34732M14.6693 10.0007V6.00065C14.6693 2.66732 13.3359 1.33398 10.0026 1.33398H6.0026C2.66927 1.33398 1.33594 2.66732 1.33594 6.00065V10.0007C1.33594 13.334 2.66927 14.6673 6.0026 14.6673H10.0026C13.3359 14.6673 14.6693 13.334 14.6693 10.0007ZM6.5026 8.83398C6.5026 7.80732 7.22927 7.38732 8.11594 7.90065L9.5026 8.70065C10.3893 9.21398 10.3893 10.054 9.5026 10.5673L8.11594 11.3673C7.22927 11.8807 6.5026 11.4607 6.5026 10.434V8.83398Z" stroke="#5F5F5F" stroke-width="0.8" stroke-miterlimit="10" stroke-linecap="round" stroke-linejoin="round"/>
</svg>
