<svg width="14" height="14" viewBox="0 0 14 14" fill="none" xmlns="http://www.w3.org/2000/svg">
<path d="M2.21094 1.28125C2.38026 1.28133 2.51758 1.41222 2.51758 1.57324V2.56055H7.73828V1.57324C7.73828 1.41217 7.87552 1.28125 8.04492 1.28125H9.94824C10.1176 1.28125 10.2549 1.41217 10.2549 1.57324V13.7021C10.2548 13.8631 10.1176 13.9932 9.94824 13.9932H0.306641C0.137353 13.9931 0.00010943 13.8631 0 13.7021V1.57324C0 1.4122 0.137283 1.2813 0.306641 1.28125H2.21094ZM0.613281 13.4102H9.6416V1.86426H8.35156V2.85254C8.35156 3.0135 8.21417 3.14436 8.04492 3.14453H2.21094C2.04154 3.14453 1.9043 3.01361 1.9043 2.85254V1.86426H0.613281V13.4102Z" fill="#4B4B4B"/>
<path d="M2.21094 1.28125C2.38026 1.28133 2.51758 1.41222 2.51758 1.57324V2.56055H7.73828V1.57324C7.73828 1.41217 7.87552 1.28125 8.04492 1.28125H9.94824C10.1176 1.28125 10.2549 1.41217 10.2549 1.57324V13.7021C10.2548 13.8631 10.1176 13.9932 9.94824 13.9932H0.306641C0.137353 13.9931 0.00010943 13.8631 0 13.7021V1.57324C0 1.4122 0.137283 1.2813 0.306641 1.28125H2.21094ZM0.613281 13.4102H9.6416V1.86426H8.35156V2.85254C8.35156 3.0135 8.21417 3.14436 8.04492 3.14453H2.21094C2.04154 3.14453 1.9043 3.01361 1.9043 2.85254V1.86426H0.613281V13.4102Z" stroke="black"/>
<path d="M2.21191 2.11328C2.33896 2.11328 2.44238 2.21123 2.44238 2.33203V2.63184H7.81641V2.33203C7.81641 2.21131 7.91896 2.11341 8.0459 2.11328H8.96582C9.09287 2.11328 9.19629 2.21123 9.19629 2.33203V12.5615C9.19629 12.6823 9.09287 12.7803 8.96582 12.7803H1.29297C1.16592 12.7803 1.0625 12.6823 1.0625 12.5615V2.33203C1.0625 2.21123 1.16592 2.11328 1.29297 2.11328H2.21191ZM1.52246 12.3428H8.73633V2.55078H8.27637V2.85059C8.27637 2.97139 8.17295 3.06934 8.0459 3.06934H2.21191C2.08506 3.06912 1.98242 2.97125 1.98242 2.85059V2.55078H1.52246V12.3428Z" fill="#4B4B4B"/>
<path d="M2.21191 2.11328C2.33896 2.11328 2.44238 2.21123 2.44238 2.33203V2.63184H7.81641V2.33203C7.81641 2.21131 7.91896 2.11341 8.0459 2.11328H8.96582C9.09287 2.11328 9.19629 2.21123 9.19629 2.33203V12.5615C9.19629 12.6823 9.09287 12.7803 8.96582 12.7803H1.29297C1.16592 12.7803 1.0625 12.6823 1.0625 12.5615V2.33203C1.0625 2.21123 1.16592 2.11328 1.29297 2.11328H2.21191ZM1.52246 12.3428H8.73633V2.55078H8.27637V2.85059C8.27637 2.97139 8.17295 3.06934 8.0459 3.06934H2.21191C2.08506 3.06912 1.98242 2.97125 1.98242 2.85059V2.55078H1.52246V12.3428Z" stroke="black"/>
<path d="M8.04297 0C8.21234 3.51517e-05 8.34961 0.130943 8.34961 0.291992V2.85156C8.34935 3.0124 8.21218 3.14254 8.04297 3.14258H2.20898C2.03979 3.14253 1.9026 3.01239 1.90234 2.85156V0.291992C1.90234 0.130954 2.03963 5.16968e-05 2.20898 0H8.04297ZM2.51562 2.55957H7.73633V0.583008H2.51562V2.55957Z" fill="#4B4B4B"/>
<path d="M8.04297 0C8.21234 3.51517e-05 8.34961 0.130943 8.34961 0.291992V2.85156C8.34935 3.0124 8.21218 3.14254 8.04297 3.14258H2.20898C2.03979 3.14253 1.9026 3.01239 1.90234 2.85156V0.291992C1.90234 0.130954 2.03963 5.16968e-05 2.20898 0H8.04297ZM2.51562 2.55957H7.73633V0.583008H2.51562V2.55957Z" stroke="black"/>
<path d="M4.375 4.12793C4.56385 4.1528 4.75378 4.22191 4.93066 4.31934C5.09931 4.41226 5.25858 4.53267 5.39453 4.66699C5.75096 5.01923 5.95304 5.48286 5.79688 5.84863C5.78092 5.89913 5.77367 5.92108 5.72266 5.97363C5.70706 5.98973 5.69753 5.99815 5.68066 6.01172C5.6664 6.02318 5.644 6.04034 5.63867 6.04492C5.51362 6.15244 5.32115 6.14326 5.20801 6.02441C5.09485 5.9055 5.10443 5.72185 5.22949 5.61426L5.23926 5.60547C5.27348 5.47158 5.14536 5.25931 4.9541 5.07031C4.85678 4.97413 4.74343 4.88804 4.62402 4.82227C4.51268 4.76094 4.39821 4.7192 4.29102 4.70508C4.14002 4.68521 3.99613 4.73211 3.89844 4.88672C3.6228 5.32363 3.28131 5.18315 2.93359 5.04004C2.88423 5.01973 2.83445 4.99937 2.7832 4.98242C2.73435 4.96628 2.68775 4.96754 2.65723 5.05078C2.60165 5.20241 2.42705 5.28234 2.26758 5.22949C2.10828 5.17655 2.02453 5.01092 2.08008 4.85938C2.28114 4.30965 2.62044 4.31336 2.98438 4.43359C3.04568 4.45386 3.11111 4.48022 3.17578 4.50684C3.27426 4.54737 3.37055 4.58792 3.37305 4.58887C3.62032 4.19691 3.98837 4.07703 4.375 4.12793Z" fill="#4B4B4B"/>
<path d="M4.375 4.12793C4.56385 4.1528 4.75378 4.22191 4.93066 4.31934C5.09931 4.41226 5.25858 4.53267 5.39453 4.66699C5.75096 5.01923 5.95304 5.48286 5.79688 5.84863C5.78092 5.89913 5.77367 5.92108 5.72266 5.97363C5.70706 5.98973 5.69753 5.99815 5.68066 6.01172C5.6664 6.02318 5.644 6.04034 5.63867 6.04492C5.51362 6.15244 5.32115 6.14326 5.20801 6.02441C5.09485 5.9055 5.10443 5.72185 5.22949 5.61426L5.23926 5.60547C5.27348 5.47158 5.14536 5.25931 4.9541 5.07031C4.85678 4.97413 4.74343 4.88804 4.62402 4.82227C4.51268 4.76094 4.39821 4.7192 4.29102 4.70508C4.14002 4.68521 3.99613 4.73211 3.89844 4.88672C3.6228 5.32363 3.28131 5.18315 2.93359 5.04004C2.88423 5.01973 2.83445 4.99937 2.7832 4.98242C2.73435 4.96628 2.68775 4.96754 2.65723 5.05078C2.60165 5.20241 2.42705 5.28234 2.26758 5.22949C2.10828 5.17655 2.02453 5.01092 2.08008 4.85938C2.28114 4.30965 2.62044 4.31336 2.98438 4.43359C3.04568 4.45386 3.11111 4.48022 3.17578 4.50684C3.27426 4.54737 3.37055 4.58792 3.37305 4.58887C3.62032 4.19691 3.98837 4.07703 4.375 4.12793Z" stroke="black"/>
<path d="M3.34375 7C3.48705 7.02422 3.72317 7.0497 3.98828 7.07812C4.65632 7.14971 5.49132 7.23993 5.70703 7.42676V7.42578C5.78811 7.49601 5.82094 7.59877 5.80273 7.69434C5.783 7.82848 5.70131 7.98784 5.60938 8.16895C5.52887 8.32756 5.37232 8.79269 5.37402 8.75195L5.66016 8.83691L5.68164 8.85938C5.74099 8.91177 5.77818 8.98626 5.7793 9.06934C5.78142 9.23034 5.64591 9.36219 5.47656 9.36426V9.36328C4.94811 9.36972 4.76538 9.13199 4.76074 8.78809C4.75713 8.50939 4.92092 8.18726 5.05859 7.91602C5.07821 7.87737 5.09708 7.83998 5.11426 7.80566C4.84888 7.75649 4.34585 7.70276 3.9209 7.65723C3.63947 7.62706 3.38885 7.59967 3.23828 7.57422C3.07153 7.54654 2.96015 7.39586 2.98926 7.2373C3.01845 7.07885 3.17706 6.97233 3.34375 7Z" fill="#4B4B4B"/>
<path d="M3.34375 7C3.48705 7.02422 3.72317 7.0497 3.98828 7.07812C4.65632 7.14971 5.49132 7.23993 5.70703 7.42676V7.42578C5.78811 7.49601 5.82094 7.59877 5.80273 7.69434C5.783 7.82848 5.70131 7.98784 5.60938 8.16895C5.52887 8.32756 5.37232 8.79269 5.37402 8.75195L5.66016 8.83691L5.68164 8.85938C5.74099 8.91177 5.77818 8.98626 5.7793 9.06934C5.78142 9.23034 5.64591 9.36219 5.47656 9.36426V9.36328C4.94811 9.36972 4.76538 9.13199 4.76074 8.78809C4.75713 8.50939 4.92092 8.18726 5.05859 7.91602C5.07821 7.87737 5.09708 7.83998 5.11426 7.80566C4.84888 7.75649 4.34585 7.70276 3.9209 7.65723C3.63947 7.62706 3.38885 7.59967 3.23828 7.57422C3.07153 7.54654 2.96015 7.39586 2.98926 7.2373C3.01845 7.07885 3.17706 6.97233 3.34375 7Z" stroke="black"/>
<path d="M4.80859 10.1621C4.68555 10.2226 4.62335 10.3515 4.64746 10.4746C4.65394 10.5163 4.6672 10.5608 4.68359 10.6152C4.71406 10.7163 4.76176 10.8722 4.77441 11.0039C4.77699 11.031 4.77814 11.0578 4.77832 11.0811C4.67969 11.095 4.58988 11.1546 4.54492 11.2471L4.51367 11.3115C4.48566 11.3604 4.47184 11.4179 4.47754 11.4775C4.49287 11.6379 4.64283 11.7558 4.81152 11.7412L4.81055 11.7402C5.3214 11.6961 5.41917 11.3331 5.38281 10.9521C5.37454 10.8655 5.35854 10.7812 5.34082 10.7041C6.57369 10.735 7.05689 10.7456 7.30371 10.5898C7.56345 10.4258 7.54628 10.2441 7.51758 9.94629C7.49938 9.75738 7.4738 9.48728 7.57324 9.1084C7.61427 8.95237 7.51371 8.79389 7.34961 8.75488C7.18561 8.71607 7.01952 8.81086 6.97852 8.9668C6.85484 9.43783 6.88693 9.76824 6.90918 9.99902C6.91752 10.0818 7.01004 10.0765 6.96582 10.1045C6.87662 10.1605 6.4444 10.1498 5.33691 10.1221L5.11426 10.1162C5.07716 10.1153 5.05492 10.1135 5.04199 10.1123V10.1113C5.03227 10.1104 5.02227 10.1104 5.0127 10.1104C4.99906 10.1096 4.98537 10.1095 4.96484 10.1113C4.89189 10.1176 4.87074 10.1295 4.82129 10.1562C4.81927 10.1573 4.81597 10.1585 4.80859 10.1621ZM4.80859 10.1621L4.81641 10.1777L4.80859 10.1621Z" fill="#4B4B4B"/>
<path d="M4.80859 10.1621C4.68555 10.2226 4.62335 10.3515 4.64746 10.4746C4.65394 10.5163 4.6672 10.5608 4.68359 10.6152C4.71406 10.7163 4.76176 10.8722 4.77441 11.0039C4.77699 11.031 4.77814 11.0578 4.77832 11.0811C4.67969 11.095 4.58988 11.1546 4.54492 11.2471L4.51367 11.3115C4.48566 11.3604 4.47184 11.4179 4.47754 11.4775C4.49287 11.6379 4.64283 11.7558 4.81152 11.7412L4.81055 11.7402C5.3214 11.6961 5.41917 11.3331 5.38281 10.9521C5.37454 10.8655 5.35854 10.7812 5.34082 10.7041C6.57369 10.735 7.05689 10.7456 7.30371 10.5898C7.56345 10.4258 7.54628 10.2441 7.51758 9.94629C7.49938 9.75738 7.4738 9.48728 7.57324 9.1084C7.61427 8.95237 7.51371 8.79389 7.34961 8.75488C7.18561 8.71607 7.01952 8.81086 6.97852 8.9668C6.85484 9.43783 6.88693 9.76824 6.90918 9.99902C6.91752 10.0818 7.01004 10.0765 6.96582 10.1045C6.87662 10.1605 6.4444 10.1498 5.33691 10.1221L5.11426 10.1162C5.07716 10.1153 5.05492 10.1135 5.04199 10.1123V10.1113C5.03227 10.1104 5.02227 10.1104 5.0127 10.1104C4.99906 10.1096 4.98537 10.1095 4.96484 10.1113C4.89189 10.1176 4.87074 10.1295 4.82129 10.1562C4.81927 10.1573 4.81597 10.1585 4.80859 10.1621ZM4.80859 10.1621L4.81641 10.1777L4.80859 10.1621Z" stroke="black"/>
<path d="M13.6924 3.89453C13.8616 3.89476 13.999 4.02559 13.999 4.18652V11.3955C13.999 11.5564 13.8615 11.6873 13.6924 11.6875H11.7715C11.6022 11.6874 11.4649 11.5565 11.4648 11.3955V4.18652C11.4648 4.02548 11.6021 3.89458 11.7715 3.89453H13.6924ZM12.0781 11.1035H13.3848V4.47754H12.0781V11.1035Z" fill="#4B4B4B"/>
<path d="M13.6924 3.89453C13.8616 3.89476 13.999 4.02559 13.999 4.18652V11.3955C13.999 11.5564 13.8615 11.6873 13.6924 11.6875H11.7715C11.6022 11.6874 11.4649 11.5565 11.4648 11.3955V4.18652C11.4648 4.02548 11.6021 3.89458 11.7715 3.89453H13.6924ZM12.0781 11.1035H13.3848V4.47754H12.0781V11.1035Z" stroke="black"/>
<path d="M13.6914 11.1055C13.8608 11.1055 13.998 11.2364 13.998 11.3975C13.998 11.4417 13.9883 11.4839 13.9697 11.5215L13.0186 13.8135L12.7334 13.708L13.0186 13.8145C12.9564 13.9643 12.7787 14.0385 12.6211 13.9795C12.5325 13.9463 12.4688 13.8777 12.4414 13.7979L11.4912 11.5039H11.4902C11.4283 11.3541 11.5056 11.185 11.6631 11.126C11.7019 11.1114 11.742 11.1048 11.7812 11.1055H13.6914ZM12.7334 12.9141L13.2412 11.6885H12.2256L12.7334 12.9141Z" fill="#4B4B4B"/>
<path d="M13.6914 11.1055C13.8608 11.1055 13.998 11.2364 13.998 11.3975C13.998 11.4417 13.9883 11.4839 13.9697 11.5215L13.0186 13.8135L12.7334 13.708L13.0186 13.8145C12.9564 13.9643 12.7787 14.0385 12.6211 13.9795C12.5325 13.9463 12.4688 13.8777 12.4414 13.7979L11.4912 11.5039H11.4902C11.4283 11.3541 11.5056 11.185 11.6631 11.126C11.7019 11.1114 11.742 11.1048 11.7812 11.1055H13.6914ZM12.7334 12.9141L13.2412 11.6885H12.2256L12.7334 12.9141Z" stroke="black"/>
<path d="M12.7314 1.27344C13.0802 1.27344 13.3975 1.40876 13.627 1.62695C13.8564 1.84514 13.999 2.14697 13.999 2.47852V4.18848C13.999 4.3494 13.8616 4.48024 13.6924 4.48047H11.7715C11.6021 4.48042 11.4648 4.34952 11.4648 4.18848V2.47852C11.4648 2.14694 11.6074 1.84514 11.8369 1.62695C12.0663 1.4089 12.3829 1.27352 12.7314 1.27344ZM12.7314 1.85645C12.5523 1.85652 12.389 1.92651 12.2705 2.03906C12.1519 2.1518 12.0781 2.30795 12.0781 2.47852V3.89648H13.3848V2.47852C13.3848 2.30795 13.3119 2.1518 13.1934 2.03906C13.0748 1.92634 12.9108 1.85645 12.7314 1.85645Z" fill="#4B4B4B"/>
<path d="M12.7314 1.27344C13.0802 1.27344 13.3975 1.40876 13.627 1.62695C13.8564 1.84514 13.999 2.14697 13.999 2.47852V4.18848C13.999 4.3494 13.8616 4.48024 13.6924 4.48047H11.7715C11.6021 4.48042 11.4648 4.34952 11.4648 4.18848V2.47852C11.4648 2.14694 11.6074 1.84514 11.8369 1.62695C12.0663 1.4089 12.3829 1.27352 12.7314 1.27344ZM12.7314 1.85645C12.5523 1.85652 12.389 1.92651 12.2705 2.03906C12.1519 2.1518 12.0781 2.30795 12.0781 2.47852V3.89648H13.3848V2.47852C13.3848 2.30795 13.3119 2.1518 13.1934 2.03906C13.0748 1.92634 12.9108 1.85645 12.7314 1.85645Z" stroke="black"/>
</svg>
